<svg id="svg" version="1.1" xmlns="http://www.w3.org/2000/svg" xmlns:xlink="http://www.w3.org/1999/xlink" width="400" height="400" viewBox="0, 0, 400,400"><g id="svgg"><path id="path0" d="M264.795 91.420 C 264.793 93.169,264.525 95.590,264.200 96.800 C 263.875 98.010,263.607 99.564,263.605 100.254 C 263.602 100.944,263.331 102.024,263.002 102.654 C 262.674 103.284,262.401 104.160,262.397 104.600 C 262.387 105.486,261.481 108.314,260.582 110.260 C 260.262 110.954,260.000 111.798,260.000 112.137 C 260.000 112.476,259.820 112.864,259.600 113.000 C 259.380 113.136,259.200 113.665,259.200 114.175 C 259.200 114.685,258.948 115.311,258.639 115.567 C 258.331 115.823,257.958 116.520,257.810 117.116 C 257.455 118.548,255.053 123.321,251.427 129.800 C 251.181 130.240,250.489 131.361,249.890 132.292 C 249.290 133.223,248.800 134.097,248.800 134.234 C 248.800 134.372,248.260 135.167,247.600 136.000 C 246.940 136.833,246.400 137.615,246.400 137.738 C 246.400 137.860,245.851 138.734,245.179 139.680 C 238.681 148.833,232.125 156.280,227.800 159.420 C 226.920 160.059,225.480 161.267,224.600 162.104 C 223.720 162.941,222.608 163.726,222.129 163.849 C 221.650 163.972,221.161 164.326,221.041 164.636 C 220.922 164.946,220.549 165.200,220.213 165.200 C 219.876 165.200,219.600 165.384,219.600 165.610 C 219.600 165.835,219.195 166.203,218.700 166.427 C 217.537 166.953,216.657 167.479,213.985 169.241 C 212.783 170.034,210.630 171.281,209.200 172.012 C 207.770 172.743,206.330 173.491,206.000 173.673 C 205.670 173.856,205.130 174.111,204.800 174.241 C 203.765 174.648,201.445 175.699,200.338 176.261 C 199.754 176.557,198.910 176.800,198.462 176.800 C 198.014 176.800,197.549 176.959,197.429 177.154 C 197.308 177.348,196.371 177.633,195.346 177.787 C 194.321 177.941,193.194 178.221,192.841 178.409 C 190.620 179.596,180.687 180.071,174.600 179.281 C 169.505 178.620,161.000 178.691,159.000 179.412 C 158.120 179.729,157.067 179.991,156.660 179.994 C 154.569 180.011,146.085 184.557,143.400 187.099 C 141.553 188.849,138.800 191.958,138.800 192.295 C 138.800 193.916,133.435 200.442,129.014 204.200 C 121.991 210.169,118.000 214.233,118.000 215.418 C 118.000 215.712,117.820 216.064,117.600 216.200 C 117.380 216.336,117.200 216.729,117.200 217.072 C 117.200 217.628,117.300 217.624,118.100 217.036 C 118.595 216.671,119.720 216.014,120.600 215.575 C 121.480 215.135,122.470 214.625,122.800 214.441 C 126.868 212.174,138.367 210.886,144.200 212.045 C 145.300 212.264,147.100 212.577,148.200 212.741 C 149.300 212.905,150.593 213.256,151.074 213.520 C 151.554 213.784,152.364 214.006,152.874 214.013 C 153.383 214.020,154.149 214.290,154.576 214.613 C 155.004 214.936,155.664 215.200,156.044 215.200 C 156.424 215.200,157.245 215.459,157.868 215.776 C 158.490 216.092,159.720 216.645,160.600 217.005 C 162.608 217.826,164.937 218.937,165.200 219.200 C 165.310 219.310,166.120 219.758,167.000 220.196 C 167.880 220.634,170.014 221.939,171.742 223.096 C 173.471 224.253,175.021 225.200,175.187 225.200 C 175.353 225.200,176.359 226.010,177.422 227.000 C 178.485 227.990,179.427 228.800,179.515 228.800 C 179.682 228.800,182.905 231.752,183.883 232.800 C 184.191 233.130,185.288 234.480,186.321 235.800 C 187.355 237.120,188.328 238.258,188.485 238.328 C 188.642 238.399,189.170 239.119,189.658 239.928 C 190.147 240.738,191.479 242.840,192.618 244.600 C 195.813 249.535,199.600 256.523,199.600 257.481 C 199.600 257.766,199.780 258.000,200.000 258.000 C 200.220 258.000,200.400 258.287,200.400 258.638 C 200.400 258.989,200.663 259.754,200.984 260.338 C 201.304 260.922,201.944 262.300,202.405 263.400 C 202.866 264.500,203.433 265.850,203.664 266.400 C 205.268 270.217,205.368 270.496,207.802 278.000 C 208.766 280.970,209.851 284.480,210.214 285.800 C 210.576 287.120,211.127 289.044,211.437 290.075 C 211.746 291.106,212.000 292.491,212.000 293.152 C 212.000 295.502,213.278 294.964,213.784 292.400 C 214.054 291.038,214.945 288.217,215.617 286.600 C 215.800 286.160,216.073 285.350,216.223 284.800 C 216.476 283.870,217.030 282.588,219.162 278.000 C 220.335 275.477,222.039 272.419,223.100 270.935 C 223.595 270.243,224.004 269.524,224.009 269.338 C 224.014 269.152,224.599 268.346,225.309 267.547 C 226.019 266.748,227.647 264.826,228.927 263.277 C 230.207 261.727,231.954 259.890,232.809 259.193 C 233.664 258.496,234.791 257.538,235.315 257.063 C 235.838 256.588,237.061 255.542,238.033 254.738 C 239.005 253.934,240.195 252.944,240.678 252.538 C 241.161 252.132,242.150 251.350,242.877 250.800 C 246.475 248.077,251.761 242.706,252.619 240.900 C 252.959 240.185,253.409 239.600,253.619 239.600 C 253.828 239.600,254.000 239.274,254.000 238.876 C 254.000 238.479,254.264 237.804,254.587 237.376 C 254.910 236.949,255.180 236.267,255.187 235.860 C 255.194 235.454,255.454 234.554,255.765 233.860 C 256.398 232.446,256.876 227.294,256.401 227.001 C 256.093 226.810,253.917 228.316,253.667 228.893 C 253.593 229.062,253.366 229.200,253.161 229.200 C 252.956 229.200,251.955 230.010,250.936 231.000 C 249.917 231.990,248.958 232.800,248.804 232.800 C 248.650 232.800,248.001 233.258,247.362 233.818 C 246.003 235.008,240.134 238.400,239.433 238.400 C 239.169 238.400,238.604 238.664,238.176 238.987 C 237.749 239.310,236.977 239.580,236.460 239.587 C 235.944 239.594,234.922 239.884,234.190 240.232 C 233.458 240.579,232.455 240.804,231.961 240.732 C 230.986 240.589,230.388 239.600,231.276 239.600 C 231.574 239.600,232.716 239.015,233.813 238.300 C 234.910 237.585,236.500 236.640,237.347 236.200 C 238.194 235.760,239.660 234.725,240.605 233.900 C 241.550 233.075,242.446 232.400,242.597 232.400 C 243.194 232.400,249.864 225.736,253.008 222.000 C 255.379 219.181,260.433 211.584,262.254 208.099 C 263.030 206.614,263.810 205.130,263.988 204.800 C 264.166 204.470,264.628 203.480,265.015 202.600 C 265.401 201.720,265.870 200.690,266.056 200.310 C 266.242 199.931,266.768 198.491,267.226 197.110 C 267.683 195.730,268.211 194.240,268.398 193.800 C 268.586 193.360,269.033 191.920,269.392 190.600 C 269.751 189.280,270.305 187.284,270.622 186.165 C 270.940 185.046,271.206 183.516,271.214 182.765 C 271.222 182.014,271.489 180.320,271.808 179.000 C 272.419 176.469,272.597 161.787,272.065 157.832 C 271.708 155.180,271.041 155.126,270.238 157.684 C 268.734 162.468,264.313 172.160,262.504 174.638 C 262.007 175.319,261.600 176.056,261.600 176.276 C 261.600 176.496,261.240 177.002,260.800 177.400 C 260.360 177.798,259.995 178.321,259.989 178.562 C 259.968 179.458,254.818 185.733,249.800 190.980 C 249.140 191.670,247.700 192.947,246.601 193.817 C 244.645 195.365,244.209 195.717,243.066 196.667 C 242.176 197.407,237.169 200.800,236.967 200.800 C 236.866 200.800,236.023 201.291,235.092 201.892 C 232.571 203.519,231.862 203.943,231.200 204.220 C 230.870 204.358,229.700 204.890,228.600 205.402 C 223.900 207.591,221.253 208.685,219.000 209.370 C 217.680 209.771,216.287 210.257,215.905 210.450 C 214.972 210.920,213.705 210.893,213.397 210.395 C 213.258 210.171,213.689 209.882,214.365 209.747 C 215.034 209.613,215.788 209.255,216.040 208.952 C 216.292 208.648,216.814 208.400,217.200 208.400 C 217.586 208.400,218.126 208.130,218.400 207.800 C 218.674 207.470,219.106 207.200,219.360 207.200 C 220.804 207.200,231.707 200.670,233.416 198.782 C 233.805 198.352,234.369 198.000,234.668 198.000 C 235.421 198.000,244.492 189.133,246.740 186.200 C 247.752 184.880,248.911 183.440,249.315 183.000 C 250.262 181.971,252.800 178.157,252.800 177.764 C 252.800 177.598,253.053 177.179,253.363 176.831 C 253.672 176.484,254.767 174.599,255.796 172.642 C 256.824 170.685,257.822 168.795,258.014 168.442 C 259.214 166.225,263.200 155.102,263.200 153.967 C 263.200 153.596,263.469 152.776,263.798 152.146 C 264.126 151.516,264.396 150.451,264.398 149.780 C 264.399 149.109,264.585 148.375,264.811 148.149 C 265.036 147.924,265.321 146.763,265.444 145.569 C 265.566 144.376,265.844 142.927,266.061 142.349 C 266.475 141.248,266.913 137.177,267.627 127.800 C 268.082 121.817,267.819 106.115,267.202 102.400 C 266.852 100.295,266.124 94.617,265.715 90.800 C 265.378 87.651,264.800 88.040,264.795 91.420 M159.169 189.836 C 161.938 192.165,160.127 196.736,156.623 196.267 C 152.924 195.771,152.152 191.521,155.400 189.536 C 157.009 188.553,157.711 188.609,159.169 189.836 " stroke="none" fill="#6e7274" fill-rule="evenodd"></path><path id="path1" d="M0.000 200.000 L 0.000 400.000 200.000 400.000 L 400.000 400.000 400.000 200.000 L 400.000 0.000 200.000 0.000 L 0.000 0.000 0.000 200.000 M265.800 88.300 C 265.930 89.125,266.130 90.250,266.244 90.800 C 268.756 102.865,269.495 128.047,267.605 137.200 C 267.401 138.190,267.041 140.260,266.806 141.800 C 266.010 147.006,265.770 148.202,265.400 148.800 C 265.197 149.128,264.902 150.207,264.743 151.198 C 264.322 153.828,262.787 158.830,261.756 160.932 C 261.450 161.555,261.200 162.323,261.200 162.638 C 261.200 162.953,261.031 163.523,260.825 163.905 C 260.619 164.287,259.332 166.940,257.965 169.800 C 256.598 172.660,255.016 175.720,254.448 176.600 C 253.881 177.480,253.233 178.515,253.008 178.899 C 248.453 186.702,231.882 203.200,228.600 203.200 C 228.512 203.200,227.427 203.810,226.188 204.557 C 223.616 206.106,223.878 206.840,226.565 205.616 C 227.550 205.167,228.531 204.800,228.745 204.800 C 228.958 204.800,229.193 204.665,229.267 204.500 C 229.340 204.335,230.300 203.764,231.400 203.232 C 238.972 199.567,248.382 191.990,254.953 184.267 C 256.553 182.387,259.699 177.867,262.271 173.753 C 262.807 172.897,265.412 167.709,265.763 166.800 C 265.891 166.470,266.158 165.930,266.357 165.600 C 266.556 165.270,267.028 164.190,267.407 163.200 C 267.786 162.210,268.248 161.040,268.434 160.600 C 269.227 158.724,270.400 154.972,270.400 154.314 C 270.400 153.256,271.947 153.403,272.353 154.500 C 272.807 155.724,273.656 168.515,273.448 171.000 C 272.911 177.442,272.407 181.536,272.030 182.526 C 271.793 183.145,271.600 184.120,271.600 184.691 C 271.600 186.799,267.083 200.406,265.214 203.930 C 265.018 204.299,264.756 204.870,264.630 205.200 C 261.202 214.211,248.263 229.789,239.253 235.752 C 235.976 237.921,235.815 238.018,235.100 238.258 C 234.338 238.514,234.138 239.200,234.825 239.200 C 235.416 239.200,239.312 237.941,239.800 237.592 C 240.020 237.435,241.280 236.716,242.600 235.995 C 243.920 235.274,245.656 234.170,246.458 233.542 C 247.259 232.914,248.009 232.400,248.124 232.400 C 248.370 232.400,249.115 231.791,253.501 228.004 C 255.317 226.437,256.982 225.265,257.201 225.401 C 258.523 226.217,256.349 236.595,254.190 239.776 C 253.646 240.579,253.200 241.381,253.200 241.559 C 253.200 242.531,247.658 248.045,243.400 251.309 C 241.640 252.659,240.020 253.905,239.800 254.080 C 234.900 257.961,228.582 264.428,225.400 268.821 C 223.040 272.079,222.275 273.367,220.187 277.600 C 219.373 279.250,218.548 280.913,218.354 281.295 C 217.457 283.054,214.516 291.863,214.178 293.800 C 213.665 296.738,212.174 297.679,211.802 295.300 C 211.673 294.475,211.290 292.720,210.952 291.400 C 210.613 290.080,210.180 288.370,209.989 287.600 C 209.652 286.247,206.168 275.253,205.171 272.400 C 204.579 270.705,202.509 265.459,201.778 263.800 C 201.488 263.140,200.856 261.700,200.375 260.600 C 199.193 257.896,196.537 252.519,195.535 250.800 C 188.123 238.090,183.383 232.343,175.499 226.504 C 174.233 225.567,173.089 224.800,172.956 224.800 C 172.824 224.800,172.059 224.290,171.258 223.666 C 170.456 223.043,169.530 222.407,169.200 222.254 C 168.870 222.101,167.700 221.447,166.600 220.802 C 165.500 220.156,164.185 219.442,163.678 219.215 C 161.032 218.032,158.072 216.667,157.068 216.165 C 156.445 215.854,155.635 215.599,155.268 215.598 C 154.900 215.596,154.084 215.326,153.454 214.998 C 152.824 214.669,151.957 214.400,151.528 214.400 C 151.099 214.400,150.360 214.193,149.887 213.939 C 149.413 213.686,147.940 213.346,146.613 213.184 C 145.286 213.022,142.744 212.657,140.965 212.373 C 135.613 211.518,123.729 213.814,120.769 216.275 C 120.421 216.564,119.926 216.800,119.669 216.800 C 119.411 216.800,119.200 216.951,119.200 217.136 C 119.200 217.720,117.117 218.477,116.688 218.048 C 115.698 217.058,117.987 213.242,121.686 209.722 C 124.876 206.685,125.073 206.509,127.625 204.419 C 130.366 202.175,134.800 197.937,134.800 197.562 C 134.800 195.950,142.233 186.727,145.200 184.656 C 147.802 182.840,148.502 182.430,150.000 181.841 C 150.330 181.711,150.870 181.442,151.200 181.243 C 151.796 180.884,153.530 180.212,156.600 179.152 C 157.855 178.719,161.603 178.599,174.000 178.598 C 189.022 178.595,189.948 178.552,192.800 177.727 C 198.144 176.180,198.743 175.982,199.880 175.389 C 200.496 175.068,201.227 174.804,201.505 174.802 C 201.783 174.801,202.323 174.639,202.705 174.443 C 203.087 174.247,204.570 173.506,206.000 172.797 C 209.749 170.937,212.904 169.181,213.631 168.549 C 213.979 168.247,214.412 168.000,214.594 168.000 C 214.776 168.000,215.514 167.550,216.236 167.000 C 216.957 166.450,217.665 166.000,217.810 166.000 C 217.955 166.000,218.486 165.685,218.991 165.300 C 219.495 164.915,220.306 164.330,220.793 164.000 C 230.230 157.606,239.930 146.916,247.653 134.400 C 248.807 132.530,250.147 130.460,250.631 129.800 C 251.116 129.140,251.903 127.790,252.380 126.800 C 252.857 125.810,253.732 124.078,254.324 122.950 C 256.823 118.189,260.135 109.991,261.412 105.400 C 262.933 99.937,263.171 98.763,263.806 93.600 C 264.703 86.302,265.255 84.835,265.800 88.300 M155.931 190.055 C 153.105 191.089,154.001 195.600,157.033 195.600 C 159.778 195.600,160.890 192.420,158.769 190.636 C 157.411 189.493,157.446 189.500,155.931 190.055 M222.200 206.800 C 222.060 207.027,222.396 207.200,222.976 207.200 C 223.539 207.200,224.000 207.020,224.000 206.800 C 224.000 206.580,223.651 206.400,223.224 206.400 C 222.797 206.400,222.336 206.580,222.200 206.800 " stroke="none" fill="#e3e3e4" fill-rule="evenodd"></path><path id="path2" d="M264.662 87.500 C 264.556 87.885,264.171 90.630,263.806 93.600 C 263.171 98.763,262.933 99.937,261.412 105.400 C 260.135 109.991,256.823 118.189,254.324 122.950 C 253.732 124.078,252.857 125.810,252.380 126.800 C 251.903 127.790,251.116 129.140,250.631 129.800 C 250.147 130.460,248.807 132.530,247.653 134.400 C 239.930 146.916,230.230 157.606,220.793 164.000 C 220.306 164.330,219.495 164.915,218.991 165.300 C 218.486 165.685,217.955 166.000,217.810 166.000 C 217.665 166.000,216.957 166.450,216.236 167.000 C 215.514 167.550,214.776 168.000,214.594 168.000 C 214.412 168.000,213.979 168.247,213.631 168.549 C 212.904 169.181,209.749 170.937,206.000 172.797 C 204.570 173.506,203.087 174.247,202.705 174.443 C 202.323 174.639,201.783 174.801,201.505 174.802 C 201.227 174.804,200.496 175.068,199.880 175.389 C 198.743 175.982,198.144 176.180,192.800 177.727 C 189.948 178.552,189.022 178.595,174.000 178.598 C 161.603 178.599,157.855 178.719,156.600 179.152 C 153.530 180.212,151.796 180.884,151.200 181.243 C 150.870 181.442,150.330 181.711,150.000 181.841 C 145.471 183.621,141.391 187.376,137.289 193.539 C 135.920 195.596,134.800 197.406,134.800 197.562 C 134.800 197.937,130.366 202.175,127.625 204.419 C 119.763 210.858,115.193 216.553,116.688 218.048 C 117.117 218.477,119.200 217.720,119.200 217.136 C 119.200 216.951,119.411 216.800,119.669 216.800 C 119.926 216.800,120.421 216.564,120.769 216.275 C 123.729 213.814,135.613 211.518,140.965 212.373 C 142.744 212.657,145.286 213.022,146.613 213.184 C 147.940 213.346,149.413 213.686,149.887 213.939 C 150.360 214.193,151.099 214.400,151.528 214.400 C 151.957 214.400,152.824 214.669,153.454 214.998 C 154.084 215.326,154.900 215.596,155.268 215.598 C 155.635 215.599,156.445 215.854,157.068 216.165 C 158.072 216.667,161.032 218.032,163.678 219.215 C 164.185 219.442,165.500 220.156,166.600 220.802 C 167.700 221.447,168.870 222.101,169.200 222.254 C 169.530 222.407,170.456 223.043,171.258 223.666 C 172.059 224.290,172.824 224.800,172.956 224.800 C 173.089 224.800,174.233 225.567,175.499 226.504 C 183.383 232.343,188.123 238.090,195.535 250.800 C 196.537 252.519,199.193 257.896,200.375 260.600 C 200.856 261.700,201.488 263.140,201.778 263.800 C 202.509 265.459,204.579 270.705,205.171 272.400 C 206.168 275.253,209.652 286.247,209.989 287.600 C 210.180 288.370,210.613 290.080,210.952 291.400 C 211.290 292.720,211.673 294.475,211.802 295.300 C 212.174 297.679,213.665 296.738,214.178 293.800 C 214.516 291.863,217.457 283.054,218.354 281.295 C 218.548 280.913,219.373 279.250,220.187 277.600 C 222.275 273.367,223.040 272.079,225.400 268.821 C 228.582 264.428,234.900 257.961,239.800 254.080 C 240.020 253.905,241.640 252.659,243.400 251.309 C 247.658 248.045,253.200 242.531,253.200 241.559 C 253.200 241.381,253.646 240.579,254.190 239.776 C 256.349 236.595,258.523 226.217,257.201 225.401 C 256.982 225.265,255.317 226.437,253.501 228.004 C 249.115 231.791,248.370 232.400,248.124 232.400 C 248.009 232.400,247.259 232.914,246.458 233.542 C 245.656 234.170,243.920 235.274,242.600 235.995 C 241.280 236.716,240.020 237.435,239.800 237.592 C 239.312 237.941,235.416 239.200,234.825 239.200 C 234.138 239.200,234.338 238.514,235.100 238.258 C 235.815 238.018,235.976 237.921,239.253 235.752 C 248.263 229.789,261.202 214.211,264.630 205.200 C 264.756 204.870,265.018 204.299,265.214 203.930 C 266.040 202.372,267.752 197.925,268.959 194.200 C 271.085 187.637,271.600 185.784,271.600 184.691 C 271.600 184.120,271.793 183.145,272.030 182.526 C 272.407 181.536,272.911 177.442,273.448 171.000 C 273.656 168.515,272.807 155.724,272.353 154.500 C 271.947 153.403,270.400 153.256,270.400 154.314 C 270.400 154.972,269.227 158.724,268.434 160.600 C 268.248 161.040,267.786 162.210,267.407 163.200 C 267.028 164.190,266.556 165.270,266.357 165.600 C 266.158 165.930,265.891 166.470,265.763 166.800 C 265.412 167.709,262.807 172.897,262.271 173.753 C 259.699 177.867,256.553 182.387,254.953 184.267 C 248.382 191.990,238.972 199.567,231.400 203.232 C 230.300 203.764,229.340 204.335,229.267 204.500 C 229.193 204.665,228.958 204.800,228.745 204.800 C 228.531 204.800,227.550 205.167,226.565 205.616 C 223.878 206.840,223.616 206.106,226.188 204.557 C 227.427 203.810,228.512 203.200,228.600 203.200 C 231.882 203.200,248.453 186.702,253.008 178.899 C 253.233 178.515,253.881 177.480,254.448 176.600 C 255.016 175.720,256.598 172.660,257.965 169.800 C 259.332 166.940,260.619 164.287,260.825 163.905 C 261.031 163.523,261.200 162.953,261.200 162.638 C 261.200 162.323,261.450 161.555,261.756 160.932 C 262.787 158.830,264.322 153.828,264.743 151.198 C 264.902 150.207,265.197 149.128,265.400 148.800 C 265.770 148.202,266.010 147.006,266.806 141.800 C 267.041 140.260,267.401 138.190,267.605 137.200 C 269.495 128.047,268.756 102.865,266.244 90.800 C 266.130 90.250,265.930 89.125,265.800 88.300 C 265.551 86.719,264.985 86.321,264.662 87.500 M265.715 90.800 C 266.124 94.617,266.852 100.295,267.202 102.400 C 267.819 106.115,268.082 121.817,267.627 127.800 C 266.913 137.177,266.475 141.248,266.061 142.349 C 265.844 142.927,265.566 144.376,265.444 145.569 C 265.321 146.763,265.036 147.924,264.811 148.149 C 264.585 148.375,264.399 149.109,264.398 149.780 C 264.396 150.451,264.126 151.516,263.798 152.146 C 263.469 152.776,263.200 153.596,263.200 153.967 C 263.200 155.102,259.214 166.225,258.014 168.442 C 257.822 168.795,256.824 170.685,255.796 172.642 C 254.767 174.599,253.672 176.484,253.363 176.831 C 253.053 177.179,252.800 177.598,252.800 177.764 C 252.800 178.157,250.262 181.971,249.315 183.000 C 248.911 183.440,247.752 184.880,246.740 186.200 C 244.492 189.133,235.421 198.000,234.668 198.000 C 234.369 198.000,233.805 198.352,233.416 198.782 C 231.707 200.670,220.804 207.200,219.360 207.200 C 219.106 207.200,218.674 207.470,218.400 207.800 C 218.126 208.130,217.586 208.400,217.200 208.400 C 216.814 208.400,216.292 208.648,216.040 208.952 C 215.788 209.255,215.034 209.613,214.365 209.747 C 213.689 209.882,213.258 210.171,213.397 210.395 C 213.705 210.893,214.972 210.920,215.905 210.450 C 216.287 210.257,217.680 209.771,219.000 209.370 C 221.253 208.685,223.900 207.591,228.600 205.402 C 229.700 204.890,230.870 204.358,231.200 204.220 C 231.862 203.943,232.571 203.519,235.092 201.892 C 236.023 201.291,236.866 200.800,236.967 200.800 C 237.169 200.800,242.176 197.407,243.066 196.667 C 244.209 195.717,244.645 195.365,246.601 193.817 C 247.700 192.947,249.140 191.670,249.800 190.980 C 254.818 185.733,259.968 179.458,259.989 178.562 C 259.995 178.321,260.360 177.798,260.800 177.400 C 261.240 177.002,261.600 176.496,261.600 176.276 C 261.600 176.056,262.007 175.319,262.504 174.638 C 264.313 172.160,268.734 162.468,270.238 157.684 C 271.041 155.126,271.708 155.180,272.065 157.832 C 272.597 161.787,272.419 176.469,271.808 179.000 C 271.489 180.320,271.222 182.014,271.214 182.765 C 271.206 183.516,270.940 185.046,270.622 186.165 C 270.305 187.284,269.751 189.280,269.392 190.600 C 269.033 191.920,268.586 193.360,268.398 193.800 C 268.211 194.240,267.683 195.730,267.226 197.110 C 266.768 198.491,266.242 199.931,266.056 200.310 C 265.870 200.690,265.401 201.720,265.015 202.600 C 264.628 203.480,264.166 204.470,263.988 204.800 C 263.810 205.130,263.030 206.614,262.254 208.099 C 260.433 211.584,255.379 219.181,253.008 222.000 C 249.864 225.736,243.194 232.400,242.597 232.400 C 242.446 232.400,241.550 233.075,240.605 233.900 C 239.660 234.725,238.194 235.760,237.347 236.200 C 236.500 236.640,234.910 237.585,233.813 238.300 C 232.716 239.015,231.574 239.600,231.276 239.600 C 230.388 239.600,230.986 240.589,231.961 240.732 C 232.455 240.804,233.458 240.579,234.190 240.232 C 234.922 239.884,235.944 239.594,236.460 239.587 C 236.977 239.580,237.749 239.310,238.176 238.987 C 238.604 238.664,239.169 238.400,239.433 238.400 C 240.134 238.400,246.003 235.008,247.362 233.818 C 248.001 233.258,248.650 232.800,248.804 232.800 C 248.958 232.800,249.917 231.990,250.936 231.000 C 251.955 230.010,252.956 229.200,253.161 229.200 C 253.366 229.200,253.593 229.062,253.667 228.893 C 253.917 228.316,256.093 226.810,256.401 227.001 C 256.876 227.294,256.398 232.446,255.765 233.860 C 255.454 234.554,255.194 235.454,255.187 235.860 C 255.180 236.267,254.910 236.949,254.587 237.376 C 254.264 237.804,254.000 238.479,254.000 238.876 C 254.000 239.274,253.828 239.600,253.619 239.600 C 253.409 239.600,252.959 240.185,252.619 240.900 C 251.761 242.706,246.475 248.077,242.877 250.800 C 242.150 251.350,241.161 252.132,240.678 252.538 C 240.195 252.944,239.005 253.934,238.033 254.738 C 237.061 255.542,235.838 256.588,235.315 257.063 C 234.791 257.538,233.664 258.496,232.809 259.193 C 231.954 259.890,230.207 261.727,228.927 263.277 C 227.647 264.826,226.019 266.748,225.309 267.547 C 224.599 268.346,224.014 269.152,224.009 269.338 C 224.004 269.524,223.595 270.243,223.100 270.935 C 222.039 272.419,220.335 275.477,219.162 278.000 C 217.030 282.588,216.476 283.870,216.223 284.800 C 216.073 285.350,215.800 286.160,215.617 286.600 C 214.945 288.217,214.054 291.038,213.784 292.400 C 213.278 294.964,212.000 295.502,212.000 293.152 C 212.000 292.491,211.746 291.106,211.437 290.075 C 211.127 289.044,210.576 287.120,210.214 285.800 C 209.851 284.480,208.766 280.970,207.802 278.000 C 205.368 270.496,205.268 270.217,203.664 266.400 C 203.433 265.850,202.866 264.500,202.405 263.400 C 201.944 262.300,201.304 260.922,200.984 260.338 C 200.663 259.754,200.400 258.989,200.400 258.638 C 200.400 258.287,200.220 258.000,200.000 258.000 C 199.780 258.000,199.600 257.766,199.600 257.481 C 199.600 256.523,195.813 249.535,192.618 244.600 C 191.479 242.840,190.147 240.738,189.658 239.928 C 189.170 239.119,188.642 238.399,188.485 238.328 C 188.328 238.258,187.355 237.120,186.321 235.800 C 185.288 234.480,184.191 233.130,183.883 232.800 C 182.905 231.752,179.682 228.800,179.515 228.800 C 179.427 228.800,178.485 227.990,177.422 227.000 C 176.359 226.010,175.353 225.200,175.187 225.200 C 175.021 225.200,173.471 224.253,171.742 223.096 C 170.014 221.939,167.880 220.634,167.000 220.196 C 166.120 219.758,165.310 219.310,165.200 219.200 C 164.937 218.937,162.608 217.826,160.600 217.005 C 159.720 216.645,158.490 216.092,157.868 215.776 C 157.245 215.459,156.424 215.200,156.044 215.200 C 155.664 215.200,155.004 214.936,154.576 214.613 C 154.149 214.290,153.383 214.020,152.874 214.013 C 152.364 214.006,151.554 213.784,151.074 213.520 C 150.593 213.256,149.300 212.905,148.200 212.741 C 147.100 212.577,145.300 212.264,144.200 212.045 C 138.367 210.886,126.868 212.174,122.800 214.441 C 122.470 214.625,121.480 215.135,120.600 215.575 C 119.720 216.014,118.595 216.671,118.100 217.036 C 117.300 217.624,117.200 217.628,117.200 217.072 C 117.200 216.729,117.380 216.336,117.600 216.200 C 117.820 216.064,118.000 215.712,118.000 215.418 C 118.000 214.233,121.991 210.169,129.014 204.200 C 133.435 200.442,138.800 193.916,138.800 192.295 C 138.800 191.958,141.553 188.849,143.400 187.099 C 146.085 184.557,154.569 180.011,156.660 179.994 C 157.067 179.991,158.120 179.729,159.000 179.412 C 161.000 178.691,169.505 178.620,174.600 179.281 C 180.687 180.071,190.620 179.596,192.841 178.409 C 193.194 178.221,194.321 177.941,195.346 177.787 C 196.371 177.633,197.308 177.348,197.429 177.154 C 197.549 176.959,198.014 176.800,198.462 176.800 C 198.910 176.800,199.754 176.557,200.338 176.261 C 201.445 175.699,203.765 174.648,204.800 174.241 C 205.130 174.111,205.670 173.856,206.000 173.673 C 206.330 173.491,207.770 172.743,209.200 172.012 C 210.630 171.281,212.783 170.034,213.985 169.241 C 216.657 167.479,217.537 166.953,218.700 166.427 C 219.195 166.203,219.600 165.835,219.600 165.610 C 219.600 165.384,219.876 165.200,220.213 165.200 C 220.549 165.200,220.922 164.946,221.041 164.636 C 221.161 164.326,221.650 163.972,222.129 163.849 C 222.608 163.726,223.720 162.941,224.600 162.104 C 225.480 161.267,226.920 160.059,227.800 159.420 C 232.125 156.280,238.681 148.833,245.179 139.680 C 245.851 138.734,246.400 137.860,246.400 137.738 C 246.400 137.615,246.940 136.833,247.600 136.000 C 248.260 135.167,248.800 134.372,248.800 134.234 C 248.800 134.097,249.290 133.223,249.890 132.292 C 250.489 131.361,251.181 130.240,251.427 129.800 C 255.053 123.321,257.455 118.548,257.810 117.116 C 257.958 116.520,258.331 115.823,258.639 115.567 C 258.948 115.311,259.200 114.685,259.200 114.175 C 259.200 113.665,259.380 113.136,259.600 113.000 C 259.820 112.864,260.000 112.476,260.000 112.137 C 260.000 111.798,260.262 110.954,260.582 110.260 C 261.481 108.314,262.387 105.486,262.397 104.600 C 262.401 104.160,262.674 103.284,263.002 102.654 C 263.331 102.024,263.602 100.944,263.605 100.254 C 263.607 99.564,263.875 98.010,264.200 96.800 C 264.525 95.590,264.793 93.169,264.795 91.420 C 264.800 88.040,265.378 87.651,265.715 90.800 M155.400 189.536 C 152.152 191.521,152.924 195.771,156.623 196.267 C 160.127 196.736,161.938 192.165,159.169 189.836 C 157.711 188.609,157.009 188.553,155.400 189.536 M158.769 190.636 C 160.890 192.420,159.778 195.600,157.033 195.600 C 153.167 195.600,153.385 190.087,157.269 189.632 C 157.417 189.614,158.092 190.066,158.769 190.636 M224.000 206.800 C 224.000 207.020,223.539 207.200,222.976 207.200 C 222.396 207.200,222.060 207.027,222.200 206.800 C 222.336 206.580,222.797 206.400,223.224 206.400 C 223.651 206.400,224.000 206.580,224.000 206.800 " stroke="none" fill="#9c9c9d" fill-rule="evenodd"></path></g></svg>